<svg width="24" height="24" viewBox="0 0 24 24" fill="none" xmlns="http://www.w3.org/2000/svg">
<path d="M14 21C14 22.1 13.1 23 12 23C10.9 23 10 22.1 10 21H14ZM12 2C13.1 2 14 2.9 14 4V4.2998C14.2767 4.3828 14.5448 4.48123 14.8037 4.59375C14.4086 5.11775 14.1394 5.7423 14.041 6.42188C13.4204 6.15059 12.7308 6 12 6C9.2 6 7 8.2 7 11V18H17V11C17 10.9575 16.9971 10.9152 16.9961 10.873C17.3169 10.956 17.6533 11 18 11C18.3443 11 18.6783 10.9558 18.9971 10.874C18.9978 10.9159 19 10.9579 19 11V17L21 19V20H3V19L5 17V11C5 7.9 7 5.1998 10 4.2998V4C10 2.9 10.9 2 12 2Z" fill="#1C1F23"/>
<circle cx="18" cy="7" r="2" fill="#E963A8"/>
</svg>
