<svg width="20" height="20" viewBox="0 0 20 20" fill="none" xmlns="http://www.w3.org/2000/svg">
<g clip-path="url(#clip0_498_4426)">
<path d="M9.52632 14.5455H2.89474C2.39222 14.5455 1.91029 14.3539 1.55496 14.0129C1.19962 13.6719 1 13.2095 1 12.7273V1.81818C1 1.33597 1.19962 0.873508 1.55496 0.532533C1.91029 0.191558 2.39222 0 2.89474 0H14.2632V1.81818H2.89474V12.7273H9.52632V10.9091L13.3158 13.6364L9.52632 16.3636V14.5455ZM17.1053 18.1818V5.45455H6.68421V10.9091H4.78947V5.45455C4.78947 4.97233 4.9891 4.50987 5.34443 4.1689C5.69976 3.82792 6.18169 3.63636 6.68421 3.63636H17.1053C17.6078 3.63636 18.0897 3.82792 18.445 4.1689C18.8004 4.50987 19 4.97233 19 5.45455V18.1818C19 18.664 18.8004 19.1265 18.445 19.4675C18.0897 19.8084 17.6078 20 17.1053 20H6.68421C6.18169 20 5.69976 19.8084 5.34443 19.4675C4.9891 19.1265 4.78947 18.664 4.78947 18.1818V16.3636H6.68421V18.1818H17.1053Z" fill="#6C757D"/>
</g>
<defs>
<clipPath id="clip0_498_4426">
<rect width="20" height="20" fill="white"/>
</clipPath>
</defs>
</svg>
