<svg width="20" height="20" viewBox="0 0 20 20" fill="none" xmlns="http://www.w3.org/2000/svg">
<path d="M15.8334 10H14.1667V12.5H11.6667V14.1667H15.8334V10ZM5.83337 7.5H8.33337V5.83333H4.16671V10H5.83337V7.5ZM17.5 2.5H2.50004C2.05801 2.5 1.63409 2.67559 1.32153 2.98816C1.00897 3.30072 0.833374 3.72464 0.833374 4.16667V15.8333C0.833374 16.2754 1.00897 16.6993 1.32153 17.0118C1.63409 17.3244 2.05801 17.5 2.50004 17.5H17.5C17.9421 17.5 18.366 17.3244 18.6786 17.0118C18.9911 16.6993 19.1667 16.2754 19.1667 15.8333V4.16667C19.1667 3.72464 18.9911 3.30072 18.6786 2.98816C18.366 2.67559 17.9421 2.5 17.5 2.5ZM17.5 15.8333H2.50004V4.16667H17.5V15.8333Z" fill="#6C757D"/>
</svg>
