<svg width="22" height="22" viewBox="0 0 22 22" fill="none" xmlns="http://www.w3.org/2000/svg">
<mask id="mask0_204_448" style="mask-type:alpha" maskUnits="userSpaceOnUse" x="0" y="0" width="22" height="22">
<path d="M22 0V9.05615H20.1983V1.75801H1.80166V20.242H20.1983V16.5632H22V22H0V0H22Z" fill="black"/>
<path d="M21.9203 7.64087V9.39888H6.31847L2.25065 21.6597L0.536377 21.1184L5.00799 7.64087H21.9203Z" fill="black"/>
<path d="M14.7135 14.7966C14.7135 13.5829 13.7052 12.5991 12.4615 12.5991C11.2177 12.5991 10.2094 13.5829 10.2094 14.7966C10.2094 16.0102 11.2177 16.9941 12.4615 16.9941V18.7521C10.2226 18.7521 8.40771 16.9812 8.40771 14.7966C8.40771 12.612 10.2226 10.8411 12.4615 10.8411C14.7003 10.8411 16.5152 12.612 16.5152 14.7966C16.5152 16.9812 14.7003 18.7521 12.4615 18.7521V16.9941C13.7052 16.9941 14.7135 16.0102 14.7135 14.7966Z" fill="black"/>
</mask>
<g mask="url(#mask0_204_448)">
<path d="M-0.741333 -0.327393H21.9202V22.4616H-0.741333V-0.327393Z" fill="url(#paint0_linear_204_448)"/>
<path d="M-0.741333 -0.327393H21.9202V22.4616H-0.741333V-0.327393Z" fill="url(#paint1_linear_204_448)"/>
</g>
<defs>
<linearGradient id="paint0_linear_204_448" x1="10.5894" y1="-0.327393" x2="10.5894" y2="22.4616" gradientUnits="userSpaceOnUse">
<stop stop-color="#F26BAA"/>
<stop offset="0.0769231" stop-color="#EE74BE"/>
<stop offset="0.134615" stop-color="#E97ACB"/>
<stop offset="0.192308" stop-color="#E275D3"/>
<stop offset="0.259615" stop-color="#DD64E2"/>
<stop offset="0.331731" stop-color="#D260F0"/>
<stop offset="0.427885" stop-color="#C079F6"/>
<stop offset="0.5" stop-color="#AB77F5"/>
<stop offset="0.596154" stop-color="#987BF2"/>
<stop offset="0.658654" stop-color="#8C7FF2"/>
<stop offset="0.730769" stop-color="#8186F1"/>
<stop offset="0.778846" stop-color="#788BF4"/>
<stop offset="0.822115" stop-color="#7390F1"/>
<stop offset="0.894231" stop-color="#6C99ED"/>
<stop offset="0.951923" stop-color="#5F9FF2"/>
<stop offset="1" stop-color="#58A4F2"/>
</linearGradient>
<linearGradient id="paint1_linear_204_448" x1="10.5894" y1="-0.327393" x2="10.5894" y2="22.4616" gradientUnits="userSpaceOnUse">
<stop stop-color="#F766AA"/>
<stop offset="0.0769231" stop-color="#F463BC"/>
<stop offset="0.134615" stop-color="#FB5FD1"/>
<stop offset="0.192308" stop-color="#EF5DDB"/>
<stop offset="0.259615" stop-color="#ED5AF2"/>
<stop offset="0.331731" stop-color="#D75DF8"/>
<stop offset="0.427885" stop-color="#C374FF"/>
<stop offset="0.5" stop-color="#AD71FF"/>
<stop offset="0.596154" stop-color="#9B7BFF"/>
<stop offset="0.658654" stop-color="#8576FF"/>
<stop offset="0.730769" stop-color="#797FFF"/>
<stop offset="0.778846" stop-color="#768BFF"/>
<stop offset="0.822115" stop-color="#6C8FFF"/>
<stop offset="0.894231" stop-color="#70A2FF"/>
<stop offset="0.951923" stop-color="#61A6FF"/>
<stop offset="1" stop-color="#60B5FF"/>
</linearGradient>
</defs>
</svg>
