<svg width="140" height="140" viewBox="0 0 140 140" fill="none" xmlns="http://www.w3.org/2000/svg">
<path d="M110.833 58.3333V110.833H29.1667V29.1667H81.6667V17.5H29.1667C22.8667 17.5 17.5 22.75 17.5 29.1667V110.833C17.5 117.25 22.8667 122.5 29.1667 122.5H110.833C117.367 122.5 122.5 117.25 122.5 110.833V58.3333H110.833ZM99.1667 58.3333L104.65 46.3167L116.667 40.8333L104.65 35.35L99.1667 23.3333L93.6833 35.35L81.6667 40.8333L93.6833 46.3167L99.1667 58.3333ZM77.2917 62.7083L70 46.6667L62.7083 62.7083L46.6667 70L62.7083 77.2917L70 93.3333L77.2917 77.2917L93.3333 70L77.2917 62.7083Z" fill="#E9ECEF"/>
</svg>
