<svg width="24" height="24" viewBox="0 0 24 24" fill="none" xmlns="http://www.w3.org/2000/svg">
<path d="M13 2.02979V4.04979C17.39 4.58979 20.5 8.57979 19.96 12.9698C19.5 16.6098 16.64 19.4998 13 19.9298V21.9298C18.5 21.3798 22.5 16.4998 21.9501 10.9998C21.5 6.24979 17.73 2.49979 13 2.02979ZM11 2.05979C9.05005 2.24979 7.19005 2.99979 5.67005 4.25979L7.10005 5.73978C8.22005 4.83979 9.57005 4.25979 11 4.05979V2.05979ZM4.26005 5.66979C3.00005 7.18979 2.25005 9.03979 2.05005 10.9998H4.05005C4.24005 9.57979 4.80005 8.22978 5.69005 7.09978L4.26005 5.66979ZM2.06005 12.9998C2.26005 14.9598 3.03005 16.8098 4.27005 18.3298L5.69005 16.8998C4.81005 15.7698 4.24005 14.4198 4.06005 12.9998H2.06005ZM7.10005 18.3698L5.67005 19.7398C7.18005 20.9998 9.04005 21.7898 11 21.9998V19.9998C9.58005 19.8198 8.23005 19.2498 7.10005 18.3698ZM14.59 7.99979L12 10.5898L9.41005 7.99979L8.00005 9.40979L10.59 11.9998L8.00005 14.5898L9.41005 15.9998L12 13.4098L14.59 15.9998L16 14.5898L13.41 11.9998L16 9.40979L14.59 7.99979Z" fill="#E963A8"/>
</svg>
