<svg width="54" height="54" viewBox="0 0 54 54" fill="none" xmlns="http://www.w3.org/2000/svg">
<circle cx="27" cy="27" r="27" fill="#EAEDF8"/>
<path fill-rule="evenodd" clip-rule="evenodd" d="M52.0002 26H53.0002V34L52.9943 34.1025C52.943 34.6066 52.5177 34.9999 52.0002 35V36H51.5588C51.6414 36.4007 51.6172 36.9228 51.465 37.4658C51.1737 38.5049 50.5258 39.2331 50.0002 39.127V41H49.1916C49.2704 41.4497 49.115 42.1058 48.7394 42.7402C48.2283 43.6036 47.4879 44.1277 47.0002 44.0059V45H45.9846C45.8034 45.4492 45.4975 45.9635 45.092 46.4658C44.1598 47.6203 43.056 48.2753 42.6262 47.9287C42.2971 47.663 42.4584 46.887 42.9709 46.0195C42.7848 46.041 42.6231 46.0098 42.5021 45.9121C42.073 45.5649 42.318 44.5482 43.05 43.6416C43.5253 43.053 44.0896 42.6567 44.5441 42.5449C44.6454 42.2815 44.7996 42.0038 45.0002 41.7334V23H52.0002V26ZM46.5373 43H46.5598C46.5609 42.9897 46.5614 42.9792 46.5627 42.9688C46.5539 42.9789 46.5462 42.99 46.5373 43Z" fill="#ADB5BD"/>
<path d="M22 35H2.15918L1.89551 35.1318L1 33.3438L1.39941 33.1426L1 32.3438L1.39941 32.1426L1 31.3438L2 30.8428V29H22V35Z" fill="#ADB5BD"/>
<path fill-rule="evenodd" clip-rule="evenodd" d="M21.7549 1.20155C24.0853 0.675712 26.3169 0.601521 28.1484 0.904672C29.8933 0.712426 31.9503 0.848286 34.084 1.36854C37.0367 2.08854 39.5205 3.39362 41.0488 4.86756C44.2987 6.2718 46.6587 8.22463 47.2744 9.95448C49.1349 11.8048 50.3792 13.7385 50.7598 15.3099C52.0731 17.035 52.6193 18.9775 52.208 20.5424L53.7324 24.5004H53V25.726L53.2275 25.8549L53 25.9056V26.0004H52.5791L50.1738 26.5404C49.424 27.0056 48.5582 27.2541 47.6689 27.2767C47.4558 27.6812 47.1441 28.0648 46.7471 28.4223L46.7676 28.433L45 32.1098V35.0004H20V33.9115L18.8291 32.7533L16.2812 32.7836L16.2676 31.6762L15.585 31.0004H8V30.0004H7V29.0004H6.15625L1.26758 31.4428L0.201172 29.309L1 28.9096V24.9633L0.364258 24.8139L1.72852 19.0365L2.03711 19.1088C2.2317 16.7269 3.19458 14.7182 4.52832 13.7055C4.91579 12.5775 5.49662 11.6345 6.20117 10.9818C7.03585 9.51792 8.26374 8.28615 9.75 7.41346C11.1301 5.77325 13.5299 4.21304 16.4688 3.21522C16.5453 3.18922 16.6228 3.16497 16.6992 3.14002C18.1017 2.31873 19.8318 1.63549 21.7549 1.20155ZM37 13.0004H32V14.0004H31V15.0004H30.8545C30.9467 15.3133 31 15.6495 31 16.0004C30.9999 16.8368 30.7132 17.5921 30.2529 18.1361C30.7157 18.7774 31.0982 19.4748 31.3857 20.2162C32.5567 20.4312 33.6468 20.7996 34.6152 21.2933C35.5011 21.134 36.445 21.0359 37.4268 21.0082C37.5838 20.6327 37.792 20.273 38.0518 19.9379C38.374 19.5221 38.7524 19.1738 39.1709 18.8959C39.1321 18.168 39.2485 17.4562 39.5332 16.809C39.2975 16.0085 39.2303 15.2223 39.3525 14.5023C38.6107 13.8908 37.9339 13.2567 37.333 12.6166C37.2223 12.5842 37.1112 12.5513 37 12.517V13.0004ZM28.8086 10.9818C28.8098 10.988 28.8113 10.9942 28.8125 11.0004H29V10.974C28.9364 10.9772 28.8726 10.9793 28.8086 10.9818Z" fill="#E9ECEF"/>
<path d="M27 0C41.9117 0 54 12.0883 54 27C54 35.8967 49.696 43.787 43.0576 48.7061L43.0908 48.7695L42.6738 48.9854C38.2546 52.1416 32.8446 54 27 54C12.0883 54 0 41.9117 0 27C0 12.0883 12.0883 0 27 0ZM2.42285 35.5C5.94477 45.685 15.6174 53 27 53C32.4865 53 37.5745 51.2985 41.7695 48.3975L41.5566 47.9873L41.4365 47.7568L41.5566 47.5264L42.1035 46.4727L41.5273 44.8125L41.4229 44.5098L41.6533 44.2881L44.0879 41.9492V35.5H2.42285ZM45.0879 42.375L44.9346 42.5225L42.5771 44.7861L43.1191 46.3496L43.1904 46.5527L43.0908 46.7441L42.5625 47.7568L42.5898 47.8086C46.6996 44.7246 49.8649 40.4516 51.5771 35.5H45.0879V42.375ZM1.72363 31.9473L1.33398 31.168C1.51722 32.3051 1.77396 33.4173 2.09961 34.5H19.5V34.207L18.793 33.5H16.793L15.293 32H12.9502L12.9023 31.9902L10.5322 31.5156L9.1582 31.9746L8.86523 32.0723L6.40137 29.6084L1.72363 31.9473ZM27 1C12.6406 1 1 12.6406 1 27C1 28.3722 1.10672 29.7194 1.31152 31.0342L6.59863 28.3916L9.13477 30.9277L10.4678 30.4834L10.5977 30.5098L13.0488 31H15.707L17.207 32.5H19.207L20.5 33.793V34.5H44.249L44.7461 32.1143L44.7568 32.0615L44.7783 32.0127L46.7197 27.6611L46.8105 27.457L47.0244 27.3887L52.8477 25.5234L52.9756 25.9238C52.4112 12.0635 40.9989 1 27 1ZM47.541 28.2725L45.7129 32.373L45.2705 34.5H51.9004C52.6147 32.1251 53 29.6076 53 27C53 26.8418 52.996 26.6839 52.9932 26.5264L47.541 28.2725ZM35 12C37.7614 12 40 14.2386 40 17C40 19.7614 37.7614 22 35 22C32.2386 22 30 19.7614 30 17C30 14.2386 32.2386 12 35 12ZM35 13C32.7909 13 31 14.7909 31 17C31 19.2091 32.7909 21 35 21C37.2091 21 39 19.2091 39 17C39 14.7909 37.2091 13 35 13Z" fill="#ADB5BD"/>
<circle cx="35" cy="17" r="5" fill="#F8F9FA"/>
</svg>
