<svg width="120" height="120" viewBox="0 0 120 120" fill="none" xmlns="http://www.w3.org/2000/svg">
<mask id="mask0_341_4265" style="mask-type:alpha" maskUnits="userSpaceOnUse" x="0" y="0" width="120" height="120">
<path d="M120 0V49.3972H110.173V9.58914H9.82726V110.411H110.173V90.3445H120V120H0V0H120Z" fill="black"/>
<path d="M119.565 41.6777V51.2669H34.4645L12.2764 118.144L2.92578 115.191L27.3164 41.6777H119.565Z" fill="black"/>
<path d="M80.2557 80.7084C80.2557 74.0885 74.756 68.722 67.9717 68.722C61.1874 68.722 55.6876 74.0885 55.6876 80.7084C55.6876 87.3283 61.1874 92.6948 67.9717 92.6948V102.284C55.7599 102.284 45.8604 92.6242 45.8604 80.7084C45.8604 68.7925 55.7599 59.1328 67.9717 59.1328C80.1834 59.1328 90.083 68.7925 90.083 80.7084C90.083 92.6242 80.1834 102.284 67.9717 102.284V92.6948C74.756 92.6948 80.2557 87.3283 80.2557 80.7084Z" fill="black"/>
</mask>
<g mask="url(#mask0_341_4265)">
<path d="M-4.04395 -1.78613H119.565V122.518H-4.04395V-1.78613Z" fill="#E9ECEF"/>
<path opacity="0.5" d="M-4.04395 -1.78613H119.565V122.518H-4.04395V-1.78613Z" fill="#E9ECEF"/>
</g>
</svg>
